{
  "accessors": [
    {
      "bufferView": 3,
      "componentType": 5126,
      "count": 1681,
      "max": [
        3.0597102642059326,
        5.153898239135742,
        0.3250427544116974
      ],
      "min": [
        -1.3350015878677368,
        -2.359360933303833,
        -0.2895644009113312
      ],
      "type": "VEC3"
    },
    {
      "bufferView": 3,
      "byteOffset": 20172,
      "componentType": 5126,
      "count": 1681,
      "max": [
        1.0,
        1.0,
        1.0
      ],
      "min": [
        -1.0,
        -0.9986623525619507,
        -1.0
      ],
      "type": "VEC3"
    },
    {
      "bufferView": 2,
      "componentType": 5126,
      "count": 1681,
      "max": [
        0.875,
        1.0
      ],
      "min": [
        0.125,
        0.0
      ],
      "type": "VEC2"
    },
    {
      "bufferView": 1,
      "componentType": 5125,
      "count": 2760,
      "type": "SCALAR"
    },
    {
      "bufferView": 5,
      "componentType": 5126,
      "count": 26,
      "max": [
        100.0,
        0.7755619883537292,
        1.9665377237743087e-07,
        0.0,
        0.28398439288139343,
        100.0,
        0.0,
        0.0,
        2.3841860752327193e-07,
        1.343588280633412e-07,
        100.0,
        0.0,
        0.8501213192939758,
        2.1500558853149414,
        1.301825314214966e-08,
        1.0
      ],
      "min": [
        0.6312714219093323,
        -0.28398439288139343,
        -2.3841860752327193e-07,
        0.0,
        -0.775562047958374,
        0.6312713623046875,
        -1.641208484670642e-07,
        0.0,
        -1.8828457371000695e-07,
        0.0,
        1.0,
        0.0,
        -0.8839512467384338,
        -4.130743503570557,
        -2.8388561190695327e-07,
        1.0
      ],
      "type": "MAT4"
    },
    {
      "bufferView": 0,
      "componentType": 5123,
      "count": 1681,
      "type": "VEC4"
    },
    {
      "bufferView": 4,
      "componentType": 5126,
      "count": 1681,
      "max": [
        1.0,
        0.4962206780910492,
        0.19104322791099548,
        0.1832275390625
      ],
      "min": [
        0.3233630359172821,
        0.0,
        0.0,
        0.0
      ],
      "type": "VEC4"
    }
  ],
  "asset": {
    "extras": {
      "author": "Andrewociones (https://sketchfab.com/Andrewociones)",
      "license": "CC-BY-4.0 (http://creativecommons.org/licenses/by/4.0/)",
      "source": "https://sketchfab.com/3d-models/lowpoly-glove-rigged-4426fdf19d8247c99fe1e94c59a2a2c2",
      "title": "Lowpoly Glove (Rigged)"
    },
    "generator": "Sketchfab-12.67.0",
    "version": "2.0"
  },
  "bufferViews": [
    {
      "buffer": 0,
      "byteLength": 13448,
      "byteStride": 8,
      "name": "shortBufferViews",
      "target": 34962
    },
    {
      "buffer": 0,
      "byteLength": 11040,
      "byteOffset": 13448,
      "name": "floatBufferViews",
      "target": 34963
    },
    {
      "buffer": 0,
      "byteLength": 13448,
      "byteOffset": 24488,
      "byteStride": 8,
      "name": "floatBufferViews",
      "target": 34962
    },
    {
      "buffer": 0,
      "byteLength": 40344,
      "byteOffset": 37936,
      "byteStride": 12,
      "name": "floatBufferViews",
      "target": 34962
    },
    {
      "buffer": 0,
      "byteLength": 26896,
      "byteOffset": 78280,
      "byteStride": 16,
      "name": "floatBufferViews",
      "target": 34962
    },
    {
      "buffer": 0,
      "byteLength": 1664,
      "byteOffset": 105176,
      "name": "floatBufferViews"
    }
  ],
  "buffers": [
    {
      "byteLength": 106840,
      "uri": "scene.bin"
    }
  ],
  "materials": [
    {
      "doubleSided": true,
      "name": "Scene_-_Root",
      "pbrMetallicRoughness": {
        "metallicFactor": 0.0,
        "roughnessFactor": 0.6
      }
    }
  ],
  "meshes": [
    {
      "name": "Cube__0",
      "primitives": [
        {
          "attributes": {
            "JOINTS_0": 5,
            "NORMAL": 1,
            "POSITION": 0,
            "TEXCOORD_0": 2,
            "WEIGHTS_0": 6
          },
          "indices": 3,
          "material": 0,
          "mode": 4
        }
      ]
    }
  ],
  "nodes": [
    {
      "children": [
        1
      ],
      "matrix": [
        1.0,
        0.0,
        0.0,
        0.0,
        0.0,
        2.220446049250313e-16,
        -1.0,
        0.0,
        0.0,
        1.0,
        2.220446049250313e-16,
        0.0,
        0.0,
        0.0,
        0.0,
        1.0
      ],
      "name": "Sketchfab_model"
    },
    {
      "children": [
        2
      ],
      "matrix": [
        0.009999999776482582,
        0.0,
        0.0,
        0.0,
        0.0,
        0.0,
        0.009999999776482582,
        0.0,
        0.0,
        -0.009999999776482582,
        0.0,
        0.0,
        0.0,
        0.0,
        0.0,
        1.0
      ],
      "name": "c8519556908346d3a60f30a5cee60062.fbx"
    },
    {
      "children": [
        3,
        6
      ],
      "name": "RootNode"
    },
    {
      "children": [
        4
      ],
      "matrix": [
        -29.08647719990347,
        -5.518906457566863,
        -95.51711910171437,
        0.0,
        56.63930913109449,
        79.46723428563203,
        -21.83912397841966,
        0.0,
        77.11008775993375,
        -60.45246356562044,
        -19.98834696773717,
        0.0,
        407.6245422363281,
        590.38623046875,
        -100.54539489746094,
        1.0
      ],
      "name": "Light"
    },
    {
      "children": [
        5
      ],
      "matrix": [
        1.0,
        0.0,
        0.0,
        0.0,
        0.0,
        2.220446049250313e-16,
        1.0,
        0.0,
        0.0,
        -1.0,
        2.220446049250313e-16,
        0.0,
        0.0,
        0.0,
        0.0,
        1.0
      ],
      "name": "Object_4"
    },
    {
      "name": "Object_5"
    },
    {
      "children": [
        7
      ],
      "matrix": [
        100.0,
        0.0,
        0.0,
        0.0,
        -0.0,
        -1.629206793918314e-05,
        -99.99999999999868,
        0.0,
        0.0,
        99.99999999999868,
        -1.629206793918314e-05,
        0.0,
        -4.103160858154297,
        -215.00558471679688,
        0.0,
        1.0
      ],
      "name": "Armature"
    },
    {
      "children": [
        8,
        10,
        9
      ],
      "name": "Object_7"
    },
    {
      "children": [
        11
      ],
      "name": "_rootJoint"
    },
    {
      "matrix": [
        100.0,
        0.0,
        0.0,
        0.0,
        0.0,
        6.123233995736766e-15,
        -100.0,
        0.0,
        0.0,
        100.0,
        6.123233995736766e-15,
        0.0,
        1.6391277313232422e-07,
        -2.002716064453125e-05,
        0.0,
        1.0
      ],
      "name": "Object_9"
    },
    {
      "mesh": 0,
      "name": "Object_10",
      "skin": 0
    },
    {
      "children": [
        12,
        16,
        21,
        26,
        31
      ],
      "name": "Bone_00",
      "rotation": [
        0.7071068286895752,
        0.0,
        0.0,
        0.7071067094802856
      ]
    },
    {
      "children": [
        13
      ],
      "name": "Bone.001_01",
      "rotation": [
        6.202399305266226e-08,
        2.9111582477980846e-08,
        -0.409214049577713,
        0.9124383926391602
      ],
      "translation": [
        0.0,
        1.0,
        0.0
      ]
    },
    {
      "children": [
        14
      ],
      "name": "Bone.002_02",
      "rotation": [
        -8.57081405847282e-10,
        -5.2365368929940814e-08,
        -0.01755540631711483,
        0.9998459815979004
      ],
      "translation": [
        -1.942890293094024e-14,
        2.1099183559417725,
        6.439293542825908e-15
      ]
    },
    {
      "children": [
        15
      ],
      "name": "Bone.003_03",
      "rotation": [
        -1.461442217243203e-10,
        6.978369526677852e-08,
        -0.0046535939909517765,
        0.9999892711639404
      ],
      "scale": [
        0.9999999403953552,
        1.0,
        1.0
      ],
      "translation": [
        -6.661338147750939e-16,
        0.9382879734039307,
        -7.105427357601002e-15
      ]
    },
    {
      "name": "Bone.003_end_020",
      "rotation": [
        -6.617444900424222e-24,
        -1.3234889800848443e-23,
        -2.356680743991551e-17,
        1.0
      ],
      "translation": [
        2.220446049250313e-16,
        0.9099769592285156,
        5.293955920339377e-23
      ]
    },
    {
      "children": [
        17
      ],
      "name": "Bone.004_04",
      "rotation": [
        6.630307325394824e-08,
        1.3589850134110293e-08,
        0.0476081408560276,
        0.998866081237793
      ],
      "translation": [
        0.0,
        1.0,
        0.0
      ]
    },
    {
      "children": [
        18
      ],
      "name": "Bone.005_05",
      "rotation": [
        -8.752720770388578e-11,
        -8.448603594501947e-09,
        0.0034772036597132683,
        0.9999939799308777
      ],
      "translation": [
        -2.235175067255568e-08,
        3.106221914291382,
        -2.042810365310288e-14
      ]
    },
    {
      "children": [
        19
      ],
      "name": "Bone.006_06",
      "rotation": [
        8.99849361690741e-10,
        3.630876577176423e-08,
        -0.016967639327049255,
        0.9998560547828674
      ],
      "translation": [
        -1.5265566588595902e-15,
        0.77214115858078,
        -4.884981308350689e-15
      ]
    },
    {
      "children": [
        20
      ],
      "name": "Bone.007_07",
      "rotation": [
        -1.0177881870632177e-09,
        -4.699555589127158e-08,
        0.02404036372900009,
        0.9997110962867737
      ],
      "translation": [
        -2.9802375678400495e-08,
        1.1548576354980469,
        -2.1316282072803006e-14
      ]
    },
    {
      "name": "Bone.007_end_021",
      "rotation": [
        -1.3234889800848443e-23,
        -4.963083675318166e-24,
        6.4602991956029286e-18,
        1.0
      ],
      "translation": [
        6.938893903907228e-17,
        0.7634260654449463,
        1.0587911840678754e-22
      ]
    },
    {
      "children": [
        22
      ],
      "name": "Bone.008_08",
      "rotation": [
        6.444210498557368e-08,
        -4.0089588537739473e-08,
        -0.059317827224731445,
        0.9982391595840454
      ],
      "translation": [
        0.0,
        1.0,
        0.0
      ]
    },
    {
      "children": [
        23
      ],
      "name": "Bone.009_09",
      "rotation": [
        2.332824378115106e-09,
        4.035151235370904e-08,
        0.048696719110012054,
        0.9988136291503906
      ],
      "translation": [
        -1.4901130995781386e-08,
        3.113262891769409,
        3.552713678800501e-14
      ]
    },
    {
      "children": [
        24
      ],
      "name": "Bone.010_010",
      "rotation": [
        1.3079020089179494e-09,
        -1.15449935833567e-07,
        0.010636485181748867,
        0.9999434351921082
      ],
      "scale": [
        0.9999999403953552,
        1.0,
        1.0
      ],
      "translation": [
        -7.450577932388569e-09,
        0.9258823990821838,
        3.574918139293004e-14
      ]
    },
    {
      "children": [
        25
      ],
      "name": "Bone.011_011",
      "rotation": [
        6.5503158452884236e-15,
        3.1282856389034275e-16,
        1.450485523221743e-17,
        1.0
      ],
      "translation": [
        -3.2029934260435766e-14,
        1.263772964477539,
        -1.4210854715202004e-14
      ]
    },
    {
      "name": "Bone.011_end_022",
      "rotation": [
        -1.3234889800848443e-23,
        2.6469779601696886e-23,
        -5.237342213070924e-25,
        1.0
      ],
      "translation": [
        5.551115123125783e-17,
        0.9453682899475098,
        0.0
      ]
    },
    {
      "children": [
        27
      ],
      "name": "Bone.012_012",
      "rotation": [
        7.03901719134592e-08,
        3.5809023302135756e-08,
        -0.1636326014995575,
        0.9865213632583618
      ],
      "scale": [
        1.0,
        0.9999999403953552,
        1.0
      ],
      "translation": [
        0.0,
        1.0,
        0.0
      ]
    },
    {
      "children": [
        28
      ],
      "name": "Bone.013_013",
      "rotation": [
        -1.2715687169873036e-08,
        4.337844217161546e-08,
        0.1351427584886551,
        0.9908261299133301
      ],
      "scale": [
        0.9999999403953552,
        1.0000001192092896,
        1.0
      ],
      "translation": [
        -8.940700269022273e-08,
        3.2063350677490234,
        -1.7763568394002505e-14
      ]
    },
    {
      "children": [
        29
      ],
      "name": "Bone.014_014",
      "rotation": [
        9.234387143841616e-10,
        -2.8552951114590996e-09,
        -0.006839444395154715,
        0.999976634979248
      ],
      "translation": [
        -1.1920936060505483e-07,
        0.8904963135719299,
        2.4868995751603507e-14
      ]
    },
    {
      "children": [
        30
      ],
      "name": "Bone.015_015",
      "rotation": [
        9.88768622534053e-10,
        1.5475233539063993e-08,
        -0.006697479169815779,
        0.9999775886535645
      ],
      "scale": [
        1.0,
        0.9999999403953552,
        1.0
      ],
      "translation": [
        -5.960473714594627e-08,
        1.039830207824707,
        1.7763568394002505e-14
      ]
    },
    {
      "name": "Bone.015_end_023",
      "rotation": [
        2.6469779601696886e-23,
        -1.3234889800848443e-23,
        5.776588097213548e-18,
        1.0
      ],
      "translation": [
        0.0,
        0.8729999661445618,
        1.0587911840678754e-22
      ]
    },
    {
      "children": [
        32
      ],
      "name": "Bone.016_016",
      "rotation": [
        5.885677012429369e-08,
        4.297383426887791e-08,
        0.14347662031650543,
        0.9896537065505981
      ],
      "translation": [
        0.0,
        1.0,
        0.0
      ]
    },
    {
      "children": [
        33
      ],
      "name": "Bone.017_017",
      "rotation": [
        9.404631740039804e-09,
        -7.677711799658482e-09,
        -0.09536951780319214,
        0.9954419136047363
      ],
      "scale": [
        1.0,
        1.0000001192092896,
        1.0
      ],
      "translation": [
        2.9802293965985882e-08,
        3.224915027618408,
        -4.263256414560601e-14
      ]
    },
    {
      "children": [
        34
      ],
      "name": "Bone.018_018",
      "rotation": [
        2.2631787555127403e-09,
        5.3081830486689796e-08,
        -0.01571822725236416,
        0.9998765587806702
      ],
      "scale": [
        1.0,
        1.0000001192092896,
        1.0
      ],
      "translation": [
        -3.9745984281580604e-14,
        0.7123689651489258,
        -3.552713678800501e-14
      ]
    },
    {
      "children": [
        35
      ],
      "name": "Bone.019_019",
      "rotation": [
        -4.80950923531509e-09,
        -1.559170392795295e-08,
        0.02650187537074089,
        0.9996488690376282
      ],
      "translation": [
        -2.980243962724671e-08,
        0.8668696284294128,
        4.263256414560601e-14
      ]
    },
    {
      "name": "Bone.019_end_024",
      "rotation": [
        1.3234889800848443e-23,
        -9.567785654716986e-41,
        -7.229162334200049e-18,
        1.0
      ],
      "translation": [
        0.0,
        0.5997875332832336,
        1.0587911840678754e-22
      ]
    }
  ],
  "scene": 0,
  "scenes": [
    {
      "name": "Sketchfab_Scene",
      "nodes": [
        0
      ]
    }
  ],
  "skins": [
    {
      "inverseBindMatrices": 4,
      "joints": [
        8,
        11,
        12,
        13,
        14,
        15,
        16,
        17,
        18,
        19,
        20,
        21,
        22,
        23,
        24,
        25,
        26,
        27,
        28,
        29,
        30,
        31,
        32,
        33,
        34,
        35
      ],
      "skeleton": 8
    }
  ]
}
