{
  "accessors": [
    {
      "bufferView": 2,
      "componentType": 5126,
      "count": 808,
      "max": [
        227.5878448486328,
        645.718017578125,
        222.60025024414063
      ],
      "min": [
        -227.5878143310547,
        -5.4339423179626465,
        -232.5753936767578
      ],
      "type": "VEC3"
    },
    {
      "bufferView": 2,
      "byteOffset": 9696,
      "componentType": 5126,
      "count": 808,
      "max": [
        0.9997510313987732,
        0.9999979734420776,
        0.9993108510971069
      ],
      "min": [
        -0.9983460307121277,
        -0.99932861328125,
        -0.9958048462867737
      ],
      "type": "VEC3"
    },
    {
      "bufferView": 1,
      "componentType": 5126,
      "count": 808,
      "max": [
        0.9919270277023315,
        0.9770486950874329
      ],
      "min": [
        0.02411719597876072,
        0.023399803787469864
      ],
      "type": "VEC2"
    },
    {
      "bufferView": 0,
      "componentType": 5125,
      "count": 3258,
      "type": "SCALAR"
    }
  ],
  "asset": {
    "extras": {
      "author": "kennedy.adams (https://sketchfab.com/kennedy.adams)",
      "license": "CC-BY-4.0 (http://creativecommons.org/licenses/by/4.0/)",
      "source": "https://sketchfab.com/3d-models/snow-tree-1a425660710f455db6f616be7c164ec5",
      "title": "Snow Tree"
    },
    "generator": "Sketchfab-12.61.0",
    "version": "2.0"
  },
  "bufferViews": [
    {
      "buffer": 0,
      "byteLength": 13032,
      "name": "floatBufferViews",
      "target": 34963
    },
    {
      "buffer": 0,
      "byteLength": 6464,
      "byteOffset": 13032,
      "byteStride": 8,
      "name": "floatBufferViews",
      "target": 34962
    },
    {
      "buffer": 0,
      "byteLength": 19392,
      "byteOffset": 19496,
      "byteStride": 12,
      "name": "floatBufferViews",
      "target": 34962
    }
  ],
  "buffers": [
    {
      "byteLength": 38888,
      "uri": "scene.bin"
    }
  ],
  "images": [
    {
      "uri": "textures/snowtree_baseColor.png"
    }
  ],
  "materials": [
    {
      "doubleSided": true,
      "name": "snowtree",
      "pbrMetallicRoughness": {
        "baseColorTexture": {
          "index": 0
        },
        "metallicFactor": 0.0,
        "roughnessFactor": 0.8211145618000169
      }
    }
  ],
  "meshes": [
    {
      "name": "tree_snowtree_0",
      "primitives": [
        {
          "attributes": {
            "NORMAL": 1,
            "POSITION": 0,
            "TEXCOORD_0": 2
          },
          "indices": 3,
          "material": 0,
          "mode": 4
        }
      ]
    }
  ],
  "nodes": [
    {
      "children": [
        1
      ],
      "matrix": [
        1.0,
        0.0,
        0.0,
        0.0,
        0.0,
        2.220446049250313e-16,
        -1.0,
        0.0,
        0.0,
        1.0,
        2.220446049250313e-16,
        0.0,
        0.0,
        0.0,
        0.0,
        1.0
      ],
      "name": "Sketchfab_model"
    },
    {
      "children": [
        2
      ],
      "matrix": [
        1.0,
        0.0,
        0.0,
        0.0,
        0.0,
        0.0,
        1.0,
        0.0,
        0.0,
        -1.0,
        0.0,
        0.0,
        0.0,
        0.0,
        0.0,
        1.0
      ],
      "name": "becdac7ff8d94893abf56dcebbbec36c.fbx"
    },
    {
      "children": [
        3
      ],
      "name": "RootNode"
    },
    {
      "children": [
        4
      ],
      "name": "tree"
    },
    {
      "mesh": 0,
      "name": "tree_snowtree_0"
    }
  ],
  "samplers": [
    {
      "magFilter": 9729,
      "minFilter": 9987,
      "wrapS": 10497,
      "wrapT": 10497
    }
  ],
  "scene": 0,
  "scenes": [
    {
      "name": "Sketchfab_Scene",
      "nodes": [
        0
      ]
    }
  ],
  "textures": [
    {
      "sampler": 0,
      "source": 0
    }
  ]
}
