{
  "accessors": [
    {
      "bufferView": 2,
      "componentType": 5126,
      "count": 65532,
      "max": [
        -0.5987284183502197,
        5.402760028839111,
        -1.02197265625
      ],
      "min": [
        -6.125716209411621,
        -0.006880505010485649,
        -3.357886791229248
      ],
      "type": "VEC3"
    },
    {
      "bufferView": 2,
      "byteOffset": 786384,
      "componentType": 5126,
      "count": 65532,
      "max": [
        0.9999350905418396,
        0.9999130368232727,
        0.9999909400939941
      ],
      "min": [
        -0.9999938011169434,
        -0.9999995827674866,
        -0.9999923706054688
      ],
      "type": "VEC3"
    },
    {
      "bufferView": 1,
      "componentType": 5126,
      "count": 65532,
      "max": [
        0.9755123853683472,
        0.9999600648880005
      ],
      "min": [
        0.00011866539716720581,
        0.0012961500324308872
      ],
      "type": "VEC2"
    },
    {
      "bufferView": 1,
      "byteOffset": 524256,
      "componentType": 5126,
      "count": 65532,
      "max": [
        0.0,
        0.0
      ],
      "min": [
        0.0,
        0.0
      ],
      "type": "VEC2"
    },
    {
      "bufferView": 0,
      "componentType": 5125,
      "count": 367977,
      "type": "SCALAR"
    },
    {
      "bufferView": 2,
      "byteOffset": 1572768,
      "componentType": 5126,
      "count": 54538,
      "max": [
        -0.6041426658630371,
        5.757517337799072,
        -1.0052313804626465
      ],
      "min": [
        -6.128905296325684,
        -0.006880505010485649,
        -3.3738045692443848
      ],
      "type": "VEC3"
    },
    {
      "bufferView": 2,
      "byteOffset": 2227224,
      "componentType": 5126,
      "count": 54538,
      "max": [
        0.9999945759773254,
        0.9999679923057556,
        0.9999409317970276
      ],
      "min": [
        -0.9999938011169434,
        -0.9999998211860657,
        -0.999988317489624
      ],
      "type": "VEC3"
    },
    {
      "bufferView": 1,
      "byteOffset": 1048512,
      "componentType": 5126,
      "count": 54538,
      "max": [
        0.9821724891662598,
        0.9999675750732422
      ],
      "min": [
        0.0,
        0.0
      ],
      "type": "VEC2"
    },
    {
      "bufferView": 1,
      "byteOffset": 1484816,
      "componentType": 5126,
      "count": 54538,
      "max": [
        0.9486899971961975,
        0.9672210216522217
      ],
      "min": [
        0.0,
        0.0
      ],
      "type": "VEC2"
    },
    {
      "bufferView": 0,
      "byteOffset": 1471908,
      "componentType": 5125,
      "count": 266697,
      "type": "SCALAR"
    }
  ],
  "asset": {
    "extras": {
      "author": "xavitrenchs (https://sketchfab.com/xavitrenchs)",
      "license": "CC-BY-4.0 (http://creativecommons.org/licenses/by/4.0/)",
      "source": "https://sketchfab.com/3d-models/snowboard-used-boot-a25c0e9d4d8841b08ba0e6abdcb9e91a",
      "title": "Snowboard used boot"
    },
    "generator": "Sketchfab-12.68.0",
    "version": "2.0"
  },
  "bufferViews": [
    {
      "buffer": 0,
      "byteLength": 2538696,
      "name": "floatBufferViews",
      "target": 34963
    },
    {
      "buffer": 0,
      "byteLength": 1921120,
      "byteOffset": 2538696,
      "byteStride": 8,
      "name": "floatBufferViews",
      "target": 34962
    },
    {
      "buffer": 0,
      "byteLength": 2881680,
      "byteOffset": 4459816,
      "byteStride": 12,
      "name": "floatBufferViews",
      "target": 34962
    }
  ],
  "buffers": [
    {
      "byteLength": 7341496,
      "uri": "scene.bin"
    }
  ],
  "images": [
    {
      "uri": "textures/Boot_baseColor.jpeg"
    }
  ],
  "materials": [
    {
      "doubleSided": true,
      "name": "Boot",
      "pbrMetallicRoughness": {
        "baseColorTexture": {
          "index": 0
        },
        "metallicFactor": 0.0
      }
    }
  ],
  "meshes": [
    {
      "name": "Mesh2_Boot_0",
      "primitives": [
        {
          "attributes": {
            "NORMAL": 1,
            "POSITION": 0,
            "TEXCOORD_0": 2,
            "TEXCOORD_1": 3
          },
          "indices": 4,
          "material": 0,
          "mode": 4
        }
      ]
    },
    {
      "name": "Mesh2_Boot_0",
      "primitives": [
        {
          "attributes": {
            "NORMAL": 6,
            "POSITION": 5,
            "TEXCOORD_0": 7,
            "TEXCOORD_1": 8
          },
          "indices": 9,
          "material": 0,
          "mode": 4
        }
      ]
    }
  ],
  "nodes": [
    {
      "children": [
        1
      ],
      "matrix": [
        1.0,
        0.0,
        0.0,
        0.0,
        0.0,
        2.220446049250313e-16,
        -1.0,
        0.0,
        0.0,
        1.0,
        2.220446049250313e-16,
        0.0,
        0.0,
        0.0,
        0.0,
        1.0
      ],
      "name": "Sketchfab_model"
    },
    {
      "children": [
        2
      ],
      "matrix": [
        1.0,
        0.0,
        0.0,
        0.0,
        0.0,
        0.0,
        1.0,
        0.0,
        0.0,
        -1.0,
        0.0,
        0.0,
        0.0,
        0.0,
        0.0,
        1.0
      ],
      "name": "Snowboard_boot.fbx"
    },
    {
      "children": [
        3
      ],
      "name": "RootNode"
    },
    {
      "children": [
        4,
        5
      ],
      "matrix": [
        0.014739520847797394,
        0.0,
        0.0,
        0.0,
        0.0,
        0.014739520847797394,
        0.0,
        0.0,
        0.0,
        0.0,
        0.014739520847797394,
        0.0,
        0.049119364470243454,
        -0.00042460550321266055,
        0.03234051913022995,
        1.0
      ],
      "name": "Mesh2"
    },
    {
      "mesh": 0,
      "name": "Mesh2_Boot_0"
    },
    {
      "mesh": 1,
      "name": "Mesh2_Boot_0"
    }
  ],
  "samplers": [
    {
      "magFilter": 9729,
      "minFilter": 9987,
      "wrapS": 10497,
      "wrapT": 10497
    }
  ],
  "scene": 0,
  "scenes": [
    {
      "name": "Sketchfab_Scene",
      "nodes": [
        0
      ]
    }
  ],
  "textures": [
    {
      "sampler": 0,
      "source": 0
    }
  ]
}
