{
  "accessors": [
    {
      "bufferView": 2,
      "componentType": 5126,
      "count": 200,
      "max": [
        -0.7816799879074097,
        0.19607000052928925,
        0.05705999955534935
      ],
      "min": [
        -1.0567899942398071,
        0.0617000013589859,
        -0.2219499945640564
      ],
      "type": "VEC3"
    },
    {
      "bufferView": 2,
      "byteOffset": 2400,
      "componentType": 5126,
      "count": 200,
      "max": [
        0.999989926815033,
        0.9985941648483276,
        0.999991238117218
      ],
      "min": [
        -0.9989364147186279,
        -0.9531355500221252,
        -0.999991238117218
      ],
      "type": "VEC3"
    },
    {
      "bufferView": 1,
      "componentType": 5126,
      "count": 200,
      "max": [
        0.9444400072097778,
        0.969219982624054
      ],
      "min": [
        0.011880000121891499,
        0.011880000121891499
      ],
      "type": "VEC2"
    },
    {
      "bufferView": 0,
      "componentType": 5125,
      "count": 336,
      "type": "SCALAR"
    },
    {
      "bufferView": 2,
      "byteOffset": 4800,
      "componentType": 5126,
      "count": 426,
      "max": [
        0.09386000037193298,
        0.145579993724823,
        0.9975200295448303
      ],
      "min": [
        -1.204110026359558,
        0.025189999490976334,
        -0.8202700018882751
      ],
      "type": "VEC3"
    },
    {
      "bufferView": 2,
      "byteOffset": 9912,
      "componentType": 5126,
      "count": 426,
      "max": [
        0.9982762336730957,
        0.9999940991401672,
        0.9999439120292664
      ],
      "min": [
        -0.9982762336730957,
        -0.999997079372406,
        -0.9999879002571106
      ],
      "type": "VEC3"
    },
    {
      "bufferView": 1,
      "byteOffset": 1600,
      "componentType": 5126,
      "count": 426,
      "max": [
        0.9881200194358826,
        0.9718000292778015
      ],
      "min": [
        0.011880000121891499,
        0.011880000121891499
      ],
      "type": "VEC2"
    },
    {
      "bufferView": 0,
      "byteOffset": 1344,
      "componentType": 5125,
      "count": 666,
      "type": "SCALAR"
    }
  ],
  "asset": {
    "extras": {
      "author": "Inuciian (https://sketchfab.com/Inuciian)",
      "license": "CC-BY-4.0 (http://creativecommons.org/licenses/by/4.0/)",
      "source": "https://sketchfab.com/3d-models/wooden-door-e4911aa958b4470194be593a0515419a",
      "title": "Wooden Door"
    },
    "generator": "Sketchfab-12.66.0",
    "version": "2.0"
  },
  "bufferViews": [
    {
      "buffer": 0,
      "byteLength": 4008,
      "name": "floatBufferViews",
      "target": 34963
    },
    {
      "buffer": 0,
      "byteLength": 5008,
      "byteOffset": 4008,
      "byteStride": 8,
      "name": "floatBufferViews",
      "target": 34962
    },
    {
      "buffer": 0,
      "byteLength": 15024,
      "byteOffset": 9016,
      "byteStride": 12,
      "name": "floatBufferViews",
      "target": 34962
    }
  ],
  "buffers": [
    {
      "byteLength": 24040,
      "uri": "scene.bin"
    }
  ],
  "materials": [
    {
      "doubleSided": true,
      "name": "wood_mat",
      "pbrMetallicRoughness": {
        "baseColorFactor": [
          0.1247718334,
          0.0865004733,
          0.0761853829,
          1.0
        ],
        "metallicFactor": 0.0
      }
    },
    {
      "doubleSided": true,
      "name": "Metal_1_mat",
      "pbrMetallicRoughness": {
        "baseColorFactor": [
          0.1027976125,
          0.077427797,
          0.1192710772,
          1.0
        ],
        "metallicFactor": 0.0,
        "roughnessFactor": 0.33
      }
    }
  ],
  "meshes": [
    {
      "name": "hut_door.002_0",
      "primitives": [
        {
          "attributes": {
            "NORMAL": 1,
            "POSITION": 0,
            "TEXCOORD_0": 2
          },
          "indices": 3,
          "material": 1,
          "mode": 4
        }
      ]
    },
    {
      "name": "hut_door.003_0",
      "primitives": [
        {
          "attributes": {
            "NORMAL": 5,
            "POSITION": 4,
            "TEXCOORD_0": 6
          },
          "indices": 7,
          "material": 0,
          "mode": 4
        }
      ]
    }
  ],
  "nodes": [
    {
      "children": [
        1
      ],
      "matrix": [
        1.0,
        0.0,
        0.0,
        0.0,
        0.0,
        2.220446049250313e-16,
        -1.0,
        0.0,
        0.0,
        1.0,
        2.220446049250313e-16,
        0.0,
        0.0,
        0.0,
        0.0,
        1.0
      ],
      "name": "Sketchfab_model"
    },
    {
      "children": [
        2,
        4
      ],
      "name": "Root"
    },
    {
      "children": [
        3
      ],
      "matrix": [
        1.0,
        0.0,
        0.0,
        0.0,
        0.0,
        1.0,
        0.0,
        0.0,
        0.0,
        0.0,
        1.0,
        0.0,
        0.44965000000000005,
        1.9286699999999999,
        3.83092,
        1.0
      ],
      "name": "hut_door.002"
    },
    {
      "mesh": 0,
      "name": "hut_door.002_0"
    },
    {
      "children": [
        5
      ],
      "matrix": [
        1.0,
        0.0,
        0.0,
        0.0,
        0.0,
        1.0,
        0.0,
        0.0,
        0.0,
        0.0,
        1.0,
        0.0,
        0.44965000000000005,
        1.9286699999999999,
        3.83092,
        1.0
      ],
      "name": "hut_door.003"
    },
    {
      "mesh": 1,
      "name": "hut_door.003_0"
    }
  ],
  "scene": 0,
  "scenes": [
    {
      "name": "Sketchfab_Scene",
      "nodes": [
        0
      ]
    }
  ]
}
